<svg preserveAspectRatio="none" width="100%" height="100%" overflow="visible" style="display: block;" viewBox="0 0 14.5833 14.5833" fill="none" xmlns="http://www.w3.org/2000/svg">
  <path id="Icon" d="M0 14.5833V3.33333H3.33333V0H11.25V6.66667H14.5833V14.5833H8.33333V11.25H6.24997V14.5833H0ZM1.24997 13.3333H3.33333V11.25H1.24997V13.3333ZM1.24997 10H3.33333V7.91664H1.24997V10ZM1.24997 6.66667H3.33333V4.5833H1.24997V6.66667ZM4.5833 10H6.66667V7.91664H4.5833V10ZM4.5833 6.66667H6.66667V4.5833H4.5833V6.66667ZM4.5833 3.33333H6.66667V1.24997H4.5833V3.33333ZM7.91664 10H10V7.91664H7.91664V10ZM7.91664 6.66667H10V4.5833H7.91664V6.66667ZM7.91664 3.33333H10V1.24997H7.91664V3.33333ZM11.25 13.3333H13.3333V11.25H11.25V13.3333ZM11.25 10H13.3333V7.91664H11.25V10Z" fill="#950100"/>
</svg>
