<svg width="15" height="19" viewBox="0 0 15 19" fill="none" xmlns="http://www.w3.org/2000/svg">
<path d="M6.74998 15.8845H8.24994V11.4499L10.1 13.2999L11.1538 12.2307L7.49996 8.57689L3.84614 12.2307L4.91535 13.2845L6.74998 11.4499V15.8845ZM1.80768 18.9999C1.30255 18.9999 0.874992 18.8249 0.524995 18.4749C0.174998 18.1249 0 17.6974 0 17.1922V1.80768C0 1.30255 0.174998 0.874992 0.524995 0.524995C0.874992 0.174998 1.30255 0 1.80768 0H9.74998L14.9999 5.24995V17.1922C14.9999 17.6974 14.8249 18.1249 14.4749 18.4749C14.1249 18.8249 13.6974 18.9999 13.1922 18.9999H1.80768ZM9 5.99993V1.49996H1.80768C1.73075 1.49996 1.66023 1.53202 1.59612 1.59612C1.53202 1.66023 1.49996 1.73075 1.49996 1.80768V17.1922C1.49996 17.2692 1.53202 17.3397 1.59612 17.4038C1.66023 17.4679 1.73075 17.5 1.80768 17.5H13.1922C13.2692 17.5 13.3397 17.4679 13.4038 17.4038C13.4679 17.3397 13.5 17.2692 13.5 17.1922V5.99993H9ZM1.49996 1.49996V5.99993V17.1922V1.80768C1.49996 1.73075 1.49996 1.66023 1.49996 1.59612C1.49996 1.53202 1.49996 1.49996 1.49996 1.49996Z" fill="#6A0100"/>
</svg>
