<svg width="20" height="20" viewBox="0 0 20 20" fill="none" xmlns="http://www.w3.org/2000/svg">
<path d="M1.49996 15.9999V15.9999C1.49996 15.9999 1.49996 15.9711 1.49996 15.9134C1.49996 15.8557 1.49996 15.782 1.49996 15.6922V5.30764C1.49996 5.21789 1.49996 5.14417 1.49996 5.08647C1.49996 5.02878 1.49996 4.99993 1.49996 4.99993V4.99993C1.49996 4.99993 1.49996 5.02878 1.49996 5.08647C1.49996 5.14417 1.49996 5.21789 1.49996 5.30764V15.6922V15.6922V15.6922V15.6922V15.6922C1.49996 15.5191 1.49996 15.4855 1.49996 15.5913C1.49996 15.697 1.49996 15.8333 1.49996 15.9999V15.9999M1.80768 17.4999C1.30255 17.4999 0.874992 17.3249 0.524995 16.9749C0.174998 16.6249 0 16.1973 0 15.6922V5.30764C0 4.80252 0.174998 4.37496 0.524995 4.02496C0.874992 3.67496 1.30255 3.49996 1.80768 3.49996H6V1.80768C6 1.30255 6.175 0.874992 6.525 0.524995C6.87499 0.174998 7.30255 0 7.80768 0H11.1922C11.6974 0 12.1249 0.174998 12.4749 0.524995C12.8249 0.874992 12.9999 1.30255 12.9999 1.80768V3.49996H17.1922C17.6974 3.49996 18.1249 3.67496 18.4749 4.02496C18.8249 4.37496 18.9999 4.80252 18.9999 5.30764V9.54418C18.7704 9.38521 18.5323 9.24739 18.2855 9.13073C18.0387 9.01406 17.7769 8.91022 17.5 8.8192V5.30764C17.5 5.21789 17.4711 5.14417 17.4134 5.08647C17.3557 5.02878 17.282 4.99993 17.1922 4.99993H1.80768C1.71793 4.99993 1.6442 5.02878 1.58651 5.08647C1.52881 5.14417 1.49996 5.21789 1.49996 5.30764V15.6922C1.49996 15.782 1.52881 15.8557 1.58651 15.9134C1.6442 15.9711 1.71793 15.9999 1.80768 15.9999H9.075C9.11859 16.2666 9.17596 16.5233 9.24711 16.7701C9.31826 17.0169 9.4064 17.2602 9.51153 17.4999H1.80768V17.4999M7.49996 3.49996H11.5V1.80768C11.5 1.71793 11.4711 1.6442 11.4134 1.58651C11.3557 1.52881 11.282 1.49996 11.1922 1.49996H7.80768C7.71793 1.49996 7.6442 1.52881 7.58651 1.58651C7.52881 1.6442 7.49996 1.71793 7.49996 1.80768V3.49996V3.49996M15.5 19.4999C14.2513 19.4999 13.1891 19.0621 12.3135 18.1864C11.4378 17.3108 11 16.2486 11 14.9999C11 13.7512 11.4378 12.689 12.3135 11.8134C13.1891 10.9378 14.2513 10.5 15.5 10.5C16.7487 10.5 17.8108 10.9378 18.6865 11.8134C19.5621 12.689 19.9999 13.7512 19.9999 14.9999C19.9999 16.2486 19.5621 17.3108 18.6865 18.1864C17.8108 19.0621 16.7487 19.4999 15.5 19.4999V19.4999M15.9423 14.8192V12.0576H15.0577V15.1807L17.15 17.273L17.773 16.6499L15.9423 14.8192V14.8192" fill="#6A0100"/>
</svg>
